#tb 0: 1/25
#media_type 0: video
#codec_id 0: rawvideo
#dimensions 0: 720x480
#sar 0: 0/1
0,          1,          1,        1,   518400, 0x8f022263
0,          2,          2,        1,   518400, 0x02692654
0,          3,          3,        1,   518400, 0x55eff579
0,          4,          4,        1,   518400, 0x6c1bdf1d
0,          5,          5,        1,   518400, 0xbbedf5e4
0,          6,          6,        1,   518400, 0xb90d740d
0,          7,          7,        1,   518400, 0x81300adb
